<svg width="50" height="50" viewBox="0 0 50 50" fill="none" xmlns="http://www.w3.org/2000/svg">
<path d="M21.9875 3.12125C22.2926 3.04973 22.4436 2.58048 22.3247 2.07316C22.2058 1.56584 21.862 1.21255 21.5569 1.28407C21.2518 1.3556 21.1008 1.82484 21.2197 2.33217C21.3386 2.83949 21.6824 3.19278 21.9875 3.12125Z" fill="#81BD03"/>
<path d="M19.4592 4.706C19.739 4.46172 19.6368 3.8868 19.2309 3.42188C18.8249 2.95697 18.2691 2.7781 17.9893 3.02238C17.7095 3.26665 17.8118 3.84157 18.2177 4.30649C18.6236 4.77141 19.1795 4.95027 19.4592 4.706Z" fill="#81BD03"/>
<path d="M9.81499 39.323V44.605H14.4615V43.92H10.9235V39.323H9.81499Z" fill="#353365"/>
<path d="M15.3585 39.323V44.605H20.005V43.92H16.467V39.323H15.3585Z" fill="#353365"/>
<path d="M21.9605 39.323H20.852V44.6045H21.9605V39.323Z" fill="#353365"/>
<path d="M27.8775 44.605H29.011L26.5195 39.3235H25.2365L22.7455 44.605H23.854L24.508 43.2325H27.2315L27.8775 44.605ZM24.8095 42.5995L25.878 40.3575L26.9335 42.5995H24.8095Z" fill="#353365"/>
<path d="M7.78449 44.605H8.91799L6.42649 39.3235H5.1435L2.6525 44.605H3.761L4.415 43.2325H7.13849L7.78449 44.605ZM4.7165 42.5995L5.78499 40.3575L6.84049 42.5995H4.7165Z" fill="#353365"/>
<path d="M34.0065 39.323V43.211L31.0446 39.32H30.6291V39.323H29.7461V44.605H30.8546V40.5975L33.8695 44.605H34.0065H34.162H35.115V39.323H34.0065Z" fill="#353365"/>
<path d="M41.331 39.323H37.3819C36.8589 39.323 36.4354 39.747 36.4354 40.2695V43.658C36.4354 44.181 36.8594 44.6045 37.3819 44.6045H41.331V43.9445H37.7879C37.6604 43.9445 37.5569 43.841 37.5569 43.7135V40.202C37.5569 40.0745 37.6604 39.971 37.7879 39.971H41.331V39.323Z" fill="#353365"/>
<path d="M47.3475 39.9835V39.323H42.471V44.605H47.3475V43.9075H43.564V42.0855H46.9275V41.4315H43.564V39.9835H47.3475Z" fill="#353365"/>
<path d="M14.9125 46.38V48.7155H16.9675V48.4125H15.403V46.38H14.9125Z" fill="#353365"/>
<path d="M23.7725 46.38H23.282V48.7155H23.7725V46.38Z" fill="#353365"/>
<path d="M30.2974 46.38H29.807V48.7155H30.2974V46.38Z" fill="#353365"/>
<path d="M33.0736 46.38H31.3675C31.1365 46.38 30.949 46.5675 30.949 46.7985V48.2965C30.949 48.5275 31.1365 48.715 31.3675 48.715H33.0736V48.423H31.5025C31.4635 48.423 31.4315 48.3915 31.4315 48.352V46.737C31.4315 46.698 31.463 46.666 31.5025 46.666H33.0736V46.38Z" fill="#353365"/>
<path d="M26.1675 47.3165H25.788H24.898C24.8585 47.3165 24.827 47.285 24.827 47.246L24.84 46.733C24.84 46.694 24.8715 46.6625 24.911 46.6625H26.3645V46.376H24.7635C24.532 46.376 24.3445 46.5635 24.3445 46.795V47.19C24.3445 47.4215 24.532 47.609 24.7635 47.609H25.7885H26.012C26.051 47.609 26.083 47.6405 26.083 47.68L26.07 48.348C26.07 48.387 26.0385 48.419 25.999 48.419H24.3445V48.7055H26.1675C26.3985 48.7055 26.586 48.518 26.586 48.287V47.735C26.586 47.504 26.3985 47.3165 26.1675 47.3165Z" fill="#353365"/>
<path d="M35.4355 47.3165H35.056H34.166C34.1265 47.3165 34.095 47.285 34.095 47.246L34.108 46.733C34.108 46.694 34.1395 46.6625 34.179 46.6625H35.6325V46.376H34.0315C33.8 46.376 33.6125 46.5635 33.6125 46.795V47.19C33.6125 47.4215 33.8 47.609 34.0315 47.609H35.0565H35.28C35.319 47.609 35.351 47.6405 35.351 47.68L35.338 48.348C35.338 48.387 35.3065 48.419 35.267 48.419H33.6125V48.7055H35.4355C35.6665 48.7055 35.854 48.518 35.854 48.287V47.735C35.854 47.504 35.6665 47.3165 35.4355 47.3165Z" fill="#353365"/>
<path d="M19.297 46.38H18.7515H18.3815H17.836C17.605 46.38 17.4175 46.5675 17.4175 46.7985V48.2965C17.4175 48.5275 17.605 48.715 17.836 48.715H18.3815H18.7515H19.297C19.528 48.715 19.7155 48.5275 19.7155 48.2965V46.7985C19.7155 46.5675 19.528 46.38 19.297 46.38ZM19.2325 48.3525C19.2325 48.3915 19.201 48.4235 19.1615 48.4235H18.751H18.381H17.9705C17.9315 48.4235 17.8995 48.392 17.8995 48.3525V46.7375C17.8995 46.6985 17.931 46.6665 17.9705 46.6665H18.381H18.751H19.1615C19.2005 46.6665 19.2325 46.698 19.2325 46.7375V48.3525Z" fill="#353365"/>
<path d="M2.7805 47.6445H12.428V47.2705H2.226L2.7805 47.6445Z" fill="#353365"/>
<path d="M47.2195 47.6445H37.572V47.2705H47.774L47.2195 47.6445Z" fill="#353365"/>
<path d="M29.3819 46.376H26.9105V46.6625H27.9009V48.7155H28.3914V46.6625H29.3819V46.376Z" fill="#353365"/>
<path d="M22.151 47.3105H21.563V47.5945H22.151V48.4235H20.929C20.89 48.4235 20.858 48.392 20.858 48.3525V46.7375C20.858 46.6985 20.8895 46.6665 20.929 46.6665H22.5V46.38H20.794C20.563 46.38 20.3755 46.5675 20.3755 46.7985V48.2965C20.3755 48.5275 20.563 48.715 20.794 48.715H22.6355V48.7045V48.4235V47.5945V47.3105H22.151Z" fill="#353365"/>
<path d="M22.8505 22.485L17.9415 35.294H14.8835L20.5575 20.368C21.1515 20.8535 22.2645 21.848 22.8505 22.485Z" fill="#353365"/>
<path d="M24.861 24.697L20.8525 35.2945L24.861 32.124L28.87 35.2945L24.861 24.697Z" fill="#81BD03"/>
<path d="M31.875 27.489C31.8485 27.417 31.821 27.346 31.7935 27.276C30.483 23.8725 28.9315 21.915 27.3345 20.563C26.661 19.9925 25.9795 19.53 25.304 19.1115C25.639 18.6965 25.9575 18.2595 26.2355 17.7955C26.604 17.185 26.894 16.523 27.075 15.8385C27.2565 15.1545 27.3375 14.4525 27.311 13.763C27.2875 13.073 27.172 12.399 27.008 11.7445C27.0665 12.418 27.0715 13.091 26.989 13.7475C26.9095 14.404 26.728 15.0385 26.4665 15.6255C26.3915 15.794 26.3085 15.9575 26.22 16.1175C25.974 15.97 25.733 15.816 25.504 15.648C25.214 15.4355 24.943 15.2005 24.713 14.929C24.4825 14.658 24.2955 14.348 24.1575 14.0085C24.0185 13.6695 23.9275 13.305 23.8585 12.9365C23.864 13.3115 23.8915 13.6895 23.974 14.065C24.0555 14.44 24.1985 14.8105 24.3995 15.1505C24.5995 15.491 24.8515 15.7985 25.1225 16.0795C25.348 16.313 25.5865 16.5295 25.831 16.738C25.7095 16.9105 25.5805 17.0785 25.444 17.2395C25.0745 17.679 24.659 18.078 24.2165 18.4625C22.7245 17.589 21.3055 16.7665 20.1225 15.283C20.149 14.881 20.1945 14.4795 20.2675 14.0825C20.351 13.624 20.472 13.1715 20.6415 12.7355C20.811 12.3005 21.025 11.878 21.3075 11.4995C21.589 11.121 21.9365 10.783 22.3525 10.529C21.8985 10.704 21.4775 10.9835 21.1125 11.3255C20.7455 11.6675 20.438 12.0725 20.1735 12.5025C19.909 12.9335 19.6915 13.3935 19.513 13.8675C19.472 13.976 19.4335 14.085 19.396 14.195C16.825 9.4195 21.7305 4.4315 21.853 4.3085C16.2795 8.724 17.102 13.1955 18.739 15.898C20.896 19.4615 25.9205 20.1235 28.781 27.491H28.7975L31.7805 35.296H34.838L31.875 27.489Z" fill="#353365"/>
<path d="M23.894 10.2898C24.2958 10.1086 24.5332 9.76587 24.4242 9.52421C24.3152 9.28254 23.9012 9.23347 23.4995 9.41462C23.0977 9.59576 22.8604 9.93851 22.9693 10.1802C23.0783 10.4218 23.4923 10.4709 23.894 10.2898Z" fill="#81BD03"/>
<path d="M28.3749 11.0018C28.8107 10.7162 29.0247 10.2721 28.8529 10.01C28.6811 9.74786 28.1885 9.76695 27.7527 10.0526C27.3169 10.3383 27.1029 10.7823 27.2747 11.0445C27.4465 11.3066 27.9391 11.2875 28.3749 11.0018Z" fill="#81BD03"/>
<path d="M29.2006 14.0934C29.8175 14.0765 30.3094 13.7619 30.2992 13.3906C30.289 13.0194 29.7807 12.7321 29.1637 12.749C28.5468 12.7659 28.0549 13.0806 28.0651 13.4519C28.0753 13.8231 28.5836 14.1104 29.2006 14.0934Z" fill="#81BD03"/>
<path d="M18.0354 18.4687C18.5509 18.1293 18.8033 17.6028 18.5991 17.2925C18.3949 16.9823 17.8114 17.0058 17.2959 17.3452C16.7804 17.6845 16.528 18.2111 16.7322 18.5213C16.9364 18.8316 17.5198 18.808 18.0354 18.4687Z" fill="#81BD03"/>
<path d="M17.5363 7.28183C17.7475 6.92387 17.4365 6.34917 16.8417 5.99819C16.2468 5.64721 15.5934 5.65286 15.3822 6.01081C15.171 6.36877 15.482 6.94347 16.0768 7.29445C16.6717 7.64543 17.3251 7.63978 17.5363 7.28183Z" fill="#81BD03"/>
<path d="M30.0101 17.6272C30.1723 17.2446 29.7883 16.7159 29.1524 16.4464C28.5165 16.177 27.8696 16.2687 27.7075 16.6513C27.5453 17.0339 27.9293 17.5626 28.5652 17.8321C29.201 18.1015 29.8479 18.0098 30.0101 17.6272Z" fill="#81BD03"/>
<path d="M16.0118 15.3739C16.6571 15.128 17.0603 14.6138 16.9123 14.2255C16.7643 13.8372 16.1212 13.7218 15.4758 13.9677C14.8305 14.2136 14.4273 14.7278 14.5753 15.1161C14.7233 15.5044 15.3665 15.6199 16.0118 15.3739Z" fill="#81BD03"/>
<path d="M16.16 10.5854C16.1989 10.132 15.6195 9.7121 14.8659 9.64751C14.1124 9.58291 13.47 9.8981 13.4311 10.3515C13.3923 10.8049 13.9716 11.2248 14.7252 11.2894C15.4788 11.354 16.1211 11.0388 16.16 10.5854Z" fill="#81BD03"/>
</svg>
