<svg width="343" height="263" viewBox="0 0 343 263" fill="none" xmlns="http://www.w3.org/2000/svg">
<path d="M235.307 24.8868L239.045 34.5147L245.093 32.4831L242.454 24.8868H235.307Z" fill="#353365"/>
<path d="M257.429 12.9624C255.648 11.3504 253.867 9.73836 252.086 8.12635C251.118 7.24305 249.667 8.67841 250.656 9.5617L256 14.3977C256.967 15.281 258.397 13.8457 257.429 12.9624Z" fill="#353365"/>
<path d="M86.6981 56.6853C84.719 59.8872 82.7399 63.1112 80.7608 66.3131C80.0791 67.4393 81.8383 68.4551 82.52 67.351C84.4991 64.1491 86.4782 60.9251 88.4573 57.7231C89.139 56.5969 87.3798 55.5591 86.6981 56.6853Z" fill="#353365"/>
<path d="M92.4375 67.616C90.8322 68.3226 89.227 69.0513 87.6217 69.758C86.4342 70.2879 87.4678 72.0545 88.6552 71.5246C90.2605 70.8179 91.8658 70.0892 93.4711 69.3826C94.6585 68.8526 93.625 67.086 92.4375 67.616Z" fill="#353365"/>
<path d="M229.744 220.492C226.929 215.744 224.136 210.996 221.321 206.249C220.662 205.122 218.903 206.138 219.562 207.286C222.377 212.034 225.17 216.782 227.984 221.53C228.644 222.656 230.403 221.618 229.744 220.492Z" fill="#353365"/>
<path d="M340.266 130.109C339.034 131.345 337.781 132.604 336.549 133.841C335.626 134.768 337.055 136.204 337.979 135.276L341.695 131.544C342.641 130.617 341.189 129.159 340.266 130.109Z" fill="#353365"/>
<path d="M58.089 191.476L31.2391 73.4457C31.1732 73.1145 30.9093 72.8274 30.6014 72.717C30.2716 72.6066 29.9197 72.6507 29.6339 72.8716L0.409033 95.263C0.0791819 95.5059 -0.0747513 95.9476 0.0351991 96.345L12.5695 142.409C12.7015 142.894 13.1853 143.226 13.691 143.159C14.1968 143.093 14.5706 142.652 14.5706 142.144C14.5706 140.797 15.4722 140.2 16.3518 140.2C17.1875 140.2 18.0451 140.708 18.7048 141.614C19.3205 142.475 20.0682 144.153 20.0682 147.112C20.0682 147.642 20.464 148.084 20.9918 148.128C21.4975 148.172 21.9813 147.797 22.0693 147.289C22.4211 145.191 23.3227 144.065 24.0044 144.065C24.6201 144.065 25.9175 145.191 26.5113 149.343C27.3029 154.819 27.017 161.642 26.7312 168.863C26.5113 174.119 26.3133 179.551 26.5113 184.652C26.5332 185.116 26.8411 185.491 27.2809 185.602L56.8576 192.712C56.9455 192.734 57.0115 192.734 57.0995 192.734C57.3633 192.734 57.6272 192.624 57.8031 192.447C58.067 192.182 58.155 191.829 58.089 191.476Z" fill="#353365"/>
<path d="M53.3612 185.624C52.9434 185.624 52.5475 185.359 52.3936 184.939C52.2177 184.409 52.5035 183.835 53.0313 183.636L95.9559 168.863L65.6316 61.0575L29.5239 80.0041C29.0181 80.2691 28.4244 80.0704 28.1605 79.5625C27.8966 79.0546 28.0946 78.4363 28.6003 78.1934L65.8075 58.6726C66.0714 58.5401 66.4013 58.5181 66.6872 58.6506C66.973 58.7831 67.1709 59.0039 67.2589 59.313L98.1769 169.239C98.3309 169.769 98.045 170.299 97.5392 170.475L53.691 185.579C53.5811 185.602 53.4711 185.624 53.3612 185.624Z" fill="#353365"/>
<path d="M27.5228 80.1145C27.2149 80.1145 26.9071 79.982 26.7092 79.717C26.3793 79.2754 26.4673 78.635 26.9071 78.2817L56.4837 55.824C56.7476 55.6253 57.0994 55.559 57.4073 55.6694C57.7152 55.7799 57.979 56.0228 58.067 56.3319L59.7602 61.8966C59.9142 62.4266 59.6283 63.0008 59.0785 63.1774C58.5508 63.332 57.979 63.0449 57.8031 62.4929L56.5277 58.3193L28.1165 79.8937C27.9626 80.0482 27.7427 80.1145 27.5228 80.1145Z" fill="#353365"/>
<path d="M44.5211 108.38C44.4771 108.38 44.4112 108.38 44.3672 108.358C43.8174 108.269 43.4216 107.762 43.5096 107.187L46.5662 86.8276C46.6542 86.2755 47.1599 85.878 47.7317 85.9663C48.2814 86.0547 48.6772 86.5626 48.5893 87.1367L45.5327 107.497C45.4447 108.004 45.0049 108.38 44.5211 108.38Z" fill="#353365"/>
<path d="M53.3612 130.02C52.9433 130.02 52.5475 129.755 52.3936 129.336C52.1957 128.806 52.4815 128.232 53.0093 128.033L72.3826 121.121C72.9103 120.923 73.4821 121.21 73.68 121.74C73.8779 122.27 73.592 122.844 73.0643 123.042L53.691 129.954C53.5811 129.998 53.4711 130.02 53.3612 130.02Z" fill="#353365"/>
<path d="M63.0368 158.992C62.619 158.992 62.2451 158.75 62.0912 158.33C61.8933 157.8 62.1572 157.204 62.663 157.005L72.3386 153.251C72.8664 153.052 73.4601 153.317 73.658 153.847C73.8559 154.377 73.592 154.973 73.0862 155.172L63.4106 158.926C63.3007 158.97 63.1687 158.992 63.0368 158.992Z" fill="#353365"/>
<path d="M76.3848 163.321C76.2308 163.321 76.0549 163.276 75.901 163.21C75.3952 162.945 75.2193 162.327 75.4832 161.819L81.9923 149.541L70.2495 147.134C69.6998 147.024 69.3479 146.472 69.4579 145.92C69.5678 145.368 70.0956 145.014 70.6454 145.125L83.7295 147.797C84.0373 147.863 84.3012 148.062 84.4552 148.371C84.5871 148.658 84.5871 149.011 84.4332 149.276L77.2864 162.769C77.0885 163.122 76.7366 163.321 76.3848 163.321Z" fill="#353365"/>
<path d="M163.663 60.0638C163.004 61.455 161.75 63.1995 159.991 62.7799C158.716 62.4708 158.122 64.4361 159.397 64.7232C162.102 65.3636 164.279 63.4866 165.379 61.1459C165.928 59.9976 164.213 58.8935 163.663 60.0638Z" fill="#353365"/>
<path d="M147.875 57.6569C145.104 57.6569 142.707 56.7957 141.475 55.3383C140.706 54.4329 140.398 53.3067 140.596 52.1142C141.19 48.559 147.215 47.8082 147.897 47.7199C148.446 47.6536 148.952 48.0732 149.018 48.6252C149.084 49.1773 148.666 49.6852 148.116 49.7514C146.423 49.9281 142.861 50.8335 142.597 52.4455C142.487 53.0417 142.641 53.5717 143.015 54.0133C143.828 54.9849 145.741 55.6032 147.853 55.6032C148.424 55.6032 148.864 56.067 148.864 56.619C148.886 57.2153 148.446 57.6569 147.875 57.6569Z" fill="#353365"/>
<path d="M158.496 37.3853L158.804 39.3948C159.199 42.0005 155.197 42.6188 154.779 40.0131L154.472 38.0037C154.076 35.42 158.1 34.7796 158.496 37.3853Z" fill="#353365"/>
<path d="M151.899 25.6817C153.086 26.035 154.23 26.5871 155.461 26.8521C156.737 27.1171 156.561 29.1486 155.285 28.8836C153.878 28.5966 152.58 28.0003 151.217 27.6029C149.964 27.2495 150.645 25.3284 151.899 25.6817Z" fill="#353365"/>
<path d="M175.252 102.572C174.856 102.572 174.483 102.329 174.307 101.954C174.087 101.424 174.329 100.828 174.856 100.629C178.903 98.9287 180.354 93.9822 180.838 91.5532C176.682 92.3261 164.697 94.0485 157.176 89.6762C148.71 84.7739 147.017 74.2848 146.863 56.6853C146.863 56.1332 147.303 55.6695 147.874 55.6474C148.49 55.6695 148.886 56.0891 148.908 56.6632C149.062 76.0956 151.415 83.979 158.21 87.9096C166.544 92.7456 181.717 89.3008 181.849 89.2787C182.157 89.2125 182.487 89.3008 182.751 89.4995C182.993 89.7203 183.125 90.0295 183.103 90.3607C183.081 90.7361 182.245 99.7899 175.67 102.528C175.516 102.55 175.384 102.572 175.252 102.572Z" fill="#353365"/>
<path d="M170.964 91.4869L175.252 101.556C179.584 99.6794 181.563 94.6667 182.069 90.2282C178.419 91.0232 174.702 91.4427 170.964 91.4869Z" fill="#353365"/>
<path d="M148.028 49.7735C147.457 49.7735 147.017 49.3098 147.017 48.7577C147.039 44.0321 147.127 39.6157 147.237 34.6472C147.303 31.4894 147.369 28.0887 147.435 24.2685C147.699 8.17051 157.968 0.0221481 178.001 0.0221481C201.772 0.0221481 216.55 11.2399 216.55 29.3033C216.55 29.8774 216.088 30.319 215.538 30.319C214.966 30.319 214.526 29.8553 214.526 29.3033C214.526 12.4986 200.541 2.05372 178.023 2.05372C159.067 2.05372 149.722 9.31879 149.502 24.2906C149.436 28.1329 149.37 31.5115 149.304 34.6913C149.194 39.6599 149.106 44.0542 149.084 48.7798C149.04 49.3098 148.6 49.7735 148.028 49.7735Z" fill="#353365"/>
<path d="M215.736 35.9942C214.922 35.5746 214.153 35.0667 213.405 34.4926C201.024 30.849 187.523 26.7859 173.845 22.1265C174.021 22.8773 174.197 23.6502 174.395 24.4672C176.264 32.1519 179.826 42.0006 192.316 40.234C197.396 39.4611 202.894 39.969 206.83 42.8618C208.281 48.559 203.993 53.8808 197.638 52.6884C196.912 52.5559 195.879 52.9534 196.099 53.7483C197.396 58.2752 205.708 79.0767 211.866 69.0072C215.45 63.1333 215.846 46.9912 215.736 37.1866C215.736 36.7891 215.736 36.3917 215.736 35.9942Z" fill="#353365"/>
<path d="M197.902 54.4549C197.616 54.4549 197.33 54.4549 197.022 54.4328C196.473 54.4108 196.033 53.925 196.055 53.3729C196.077 52.8208 196.539 52.3792 197.11 52.4013C200.651 52.5558 203.377 51.7609 205.049 50.1268C206.566 48.6473 206.808 46.969 206.808 46.0858C206.808 44.6504 206.28 43.4138 205.247 42.4201C203.114 40.3665 198.804 39.4611 192.8 39.7702C192.273 39.8144 191.767 39.3727 191.723 38.7986C191.701 38.2466 192.119 37.7607 192.69 37.7387C199.353 37.3853 204.059 38.4674 206.654 40.9406C208.457 42.663 208.853 44.6946 208.853 46.0858C208.853 48.1615 208.017 50.1268 206.478 51.6063C205.093 52.9313 202.498 54.4549 197.902 54.4549Z" fill="#353365"/>
<path d="M192.734 113.415C192.558 113.415 192.36 113.37 192.206 113.26L174.724 102.44C174.548 102.329 174.395 102.153 174.307 101.954L170.282 91.8844C170.084 91.3545 170.326 90.7582 170.854 90.5595C171.382 90.3608 171.976 90.6037 172.174 91.1336L176.066 100.894L192.58 111.118L212.349 91.222L206.412 70.7075C206.258 70.1555 206.984 70.9063 207.534 70.7517C208.083 70.5971 208.633 70.9063 208.787 71.4583L214.46 91.244C214.57 91.5974 214.46 91.9948 214.197 92.2377L193.438 113.128C193.262 113.304 192.998 113.415 192.734 113.415Z" fill="#353365"/>
<path d="M156.89 49.1331C155.549 49.1331 154.208 48.8019 152.976 48.1394C149.766 46.417 147.941 42.9059 147.941 38.4674C147.941 37.8932 148.402 37.4516 148.952 37.4516C149.502 37.4516 149.964 37.9153 149.964 38.4674C149.964 42.111 151.415 44.9817 153.922 46.3287C155.945 47.4107 158.364 47.3003 160.211 46.0637C162.564 44.4738 163.619 41.4485 163.224 37.5399C163.158 36.9879 163.575 36.48 164.125 36.4137C164.653 36.3475 165.181 36.767 165.247 37.3191C165.708 41.9564 164.301 45.7545 161.332 47.7419C160.013 48.6694 158.452 49.1331 156.89 49.1331Z" fill="#353365"/>
<path d="M164.257 41.5147C163.729 41.5147 163.29 41.1172 163.246 40.5872C163.202 40.0352 163.619 39.5273 164.169 39.4831L199.243 36.4358C199.815 36.3916 200.299 36.8112 200.343 37.3632C200.387 37.9153 199.969 38.4232 199.419 38.4674L164.345 41.5147C164.301 41.5147 164.279 41.5147 164.257 41.5147Z" fill="#353365"/>
<path d="M178.001 2.28882e-05C162.674 2.28882e-05 152.998 4.7698 149.26 14.1989C149.172 14.4418 149.172 14.7289 149.282 14.9718C149.392 15.2147 149.59 15.4135 149.832 15.5239C157.946 18.7479 166.192 21.729 174.395 24.4893C188.578 29.3032 202.564 33.4768 215.252 37.1866C215.34 37.2087 215.45 37.2308 215.538 37.2308C215.604 37.2308 215.692 37.2308 215.758 37.2087C215.89 37.1866 216.022 37.1203 216.132 37.032C216.396 36.8333 216.528 36.5241 216.528 36.215V29.3032C216.55 11.2178 201.772 2.28882e-05 178.001 2.28882e-05ZM214.504 34.8238C201.838 31.0919 187.918 26.9183 173.845 22.1265C166.412 19.587 158.936 16.893 151.547 13.9781C152.404 12.1232 153.526 10.4891 154.911 9.05376C159.529 4.32815 167.16 2.00951 178.001 2.00951C200.519 2.00951 214.504 12.4544 214.504 29.259V34.8238Z" fill="#353365"/>
<path d="M150.205 15.5902C150.096 15.5902 149.986 15.5681 149.876 15.546L123.839 6.73515C123.312 6.55849 123.026 5.98436 123.202 5.4323C123.378 4.90232 123.949 4.61526 124.499 4.79191L150.535 13.6027C151.063 13.7794 151.349 14.3535 151.173 14.9056C151.041 15.3031 150.645 15.5902 150.205 15.5902Z" fill="#353365"/>
<path d="M251.36 102.572C251.118 102.572 250.876 102.484 250.678 102.307L249.161 100.894C243.355 95.528 236.099 88.815 230.271 86.5847C224.334 84.3102 217.825 83.2723 210.986 83.5152C210.436 83.5152 209.953 83.0957 209.931 82.5215C209.909 81.9474 210.348 81.4837 210.92 81.4616C218.067 81.2187 224.818 82.2786 231.019 84.6635C237.22 87.0484 244.631 93.8718 250.568 99.3703L252.085 100.761C252.503 101.137 252.525 101.777 252.151 102.197C251.91 102.462 251.624 102.572 251.36 102.572Z" fill="#353365"/>
<path d="M154.45 117.588C154.318 117.588 154.164 117.566 154.032 117.5C153.526 117.257 153.284 116.661 153.526 116.153C157 108.402 162.476 102.351 172.372 95.2409C172.833 94.9097 173.471 95.0201 173.779 95.4838C174.109 95.9475 173.999 96.5879 173.537 96.9192C163.949 103.809 158.672 109.616 155.351 117.014C155.197 117.367 154.845 117.588 154.45 117.588Z" fill="#353365"/>
<path d="M256.418 99.9223C242.52 95.7046 244.741 100.43 245.093 109.661C245.445 118.869 249.777 158.551 252.086 164.69C254.373 170.828 261.915 174.052 262.289 166.986C262.663 159.92 260.486 141.327 259.584 122.954C258.683 104.604 259.628 100.916 256.418 99.9223Z" fill="#353365"/>
<path d="M140.068 126.09C129.909 133.222 133.383 134.216 132.811 152.677C132.262 171.138 134.043 195.517 137.187 196.643C140.332 197.769 142.949 205.167 144.796 165.838C146.643 126.509 147.611 120.812 140.068 126.09Z" fill="#353365"/>
<path d="M264.884 221.839C264.334 221.839 263.872 221.375 263.872 220.823C263.872 220.271 264.312 219.807 264.884 219.807C265.082 219.807 269.788 219.719 272.998 215.059C276.626 209.804 271.085 177.144 268.71 163.188C268.622 162.636 268.996 162.106 269.546 162.018C270.095 161.929 270.623 162.305 270.711 162.857C276.494 196.996 277.616 211.968 274.669 216.23C270.821 221.772 265.126 221.839 264.884 221.839Z" fill="#353365"/>
<path d="M202.674 125.449C202.366 125.449 202.08 125.317 201.882 125.074L192.822 114.099L185.807 124.986C185.632 125.273 185.324 125.427 184.994 125.449C184.664 125.494 184.356 125.317 184.158 125.074L170.172 107.342C169.953 107.077 169.887 106.724 169.997 106.392L172.855 97.6258C173.031 97.0958 173.603 96.8088 174.131 96.9633C174.658 97.14 174.944 97.7141 174.79 98.2441L172.108 106.481L184.884 122.667L191.877 111.803C192.053 111.538 192.338 111.361 192.668 111.339C192.998 111.317 193.306 111.449 193.504 111.714L202.63 122.778L222.267 96.3229L213.097 92.4144C212.569 92.1935 212.349 91.5973 212.547 91.0674C212.767 90.5595 213.361 90.3166 213.889 90.5153L224.268 94.9318C224.554 95.0642 224.774 95.3071 224.862 95.6163C224.95 95.9255 224.884 96.2346 224.686 96.4996L203.509 125.052C203.334 125.295 203.026 125.449 202.718 125.472C202.696 125.449 202.696 125.449 202.674 125.449Z" fill="#353365"/>
<path d="M197.418 152.059H190.997C190.425 152.059 189.985 151.595 189.985 151.043V115.071C189.985 114.497 190.447 114.055 190.997 114.055C191.569 114.055 192.009 114.519 192.009 115.071V150.005H196.385V118.052C196.385 117.478 196.847 117.036 197.396 117.036C197.946 117.036 198.408 117.5 198.408 118.052V151.021C198.43 151.595 197.99 152.059 197.418 152.059Z" fill="#353365"/>
<path d="M137.187 259.599C137.165 259.599 137.165 259.599 137.143 259.599C136.572 259.577 136.154 259.114 136.154 258.539L138.353 194.832C138.375 194.28 138.859 193.838 139.408 193.838C139.98 193.86 140.398 194.324 140.398 194.898L138.199 258.606C138.199 259.18 137.737 259.599 137.187 259.599Z" fill="#353365"/>
<path d="M259.012 217.93C259.144 215.589 260.486 163.541 260.486 163.541C260.354 161.841 260.266 160.119 260.288 158.396C260.112 158.352 259.936 158.33 259.76 158.286C259.474 158.22 259.166 158.308 258.946 158.485C258.705 158.661 258.573 158.948 258.573 159.257L256.945 221.772C256.923 222.324 257.363 222.81 257.935 222.81C258.485 222.877 258.968 222.391 258.968 221.817L259.056 218.151C259.034 218.129 259.012 218.04 259.012 217.93Z" fill="#353365"/>
<path d="M273.196 263C267.874 263 264.532 261.255 260.244 259.003C257.737 257.678 254.9 256.199 251.074 254.807C248.743 253.968 246.632 253.218 244.719 252.533C234.757 249 230.645 247.52 229.985 245.069C229.744 244.142 230.029 243.17 230.865 242.198C234.669 237.738 249.447 243.479 252.371 244.694C252.899 244.915 253.141 245.511 252.921 246.019C252.701 246.549 252.107 246.792 251.602 246.571C245.357 244.009 234.625 240.918 232.426 243.523C232.052 243.965 231.899 244.296 231.965 244.539C232.338 245.952 237.814 247.918 245.4 250.612C247.314 251.296 249.447 252.047 251.778 252.886C255.736 254.322 258.639 255.845 261.211 257.192C269.26 261.41 273.702 263.729 297.341 254.675C331.536 241.558 346.071 213.249 339.43 172.838C332.217 129.358 261.409 100.739 223.762 96.9192C223.212 96.8529 222.795 96.3671 222.861 95.793C222.927 95.2409 223.41 94.8214 223.982 94.8876C259.936 98.5312 333.713 125.847 341.387 172.507C348.226 214.022 333.229 243.082 298.023 256.596C285.796 261.278 278.496 263 273.196 263Z" fill="#353365"/>
<path d="M233.944 242.11C233.812 242.11 233.658 242.088 233.526 242.022C233.372 241.956 229.875 240.322 229.612 237.053C229.524 236.082 230.007 235.154 230.931 234.448C233.746 232.306 241.464 231.776 254.636 236.7C255.164 236.899 255.428 237.495 255.23 238.003C255.032 238.533 254.438 238.798 253.933 238.599C240.651 233.631 233.988 234.668 232.162 236.06C231.965 236.214 231.613 236.545 231.635 236.877C231.811 238.952 234.339 240.145 234.361 240.167C234.867 240.41 235.087 241.006 234.867 241.514C234.691 241.889 234.317 242.11 233.944 242.11Z" fill="#353365"/>
<path d="M233.944 234.889C233.812 234.889 233.658 234.867 233.526 234.801C233.372 234.735 229.875 233.101 229.612 229.832C229.524 228.861 230.007 227.933 230.931 227.227C233.548 225.239 240.343 224.621 251.8 228.463C249.623 225.372 245.532 220.492 241.464 220.845C237.99 221.088 235.747 220.182 235.461 218.394C235.153 216.473 237.33 214.596 241.002 213.624C248.215 211.725 255.472 215.479 260.464 223.716C260.75 224.201 260.596 224.82 260.134 225.129C259.65 225.416 259.034 225.261 258.749 224.776C254.263 217.356 247.841 213.933 241.552 215.611C238.496 216.428 237.418 217.687 237.484 218.063C237.528 218.328 238.518 219.034 241.332 218.813C248.501 218.261 254.922 229.457 255.186 229.943C255.406 230.318 255.362 230.782 255.076 231.113C254.79 231.444 254.35 231.555 253.955 231.4C240.673 226.432 234.01 227.47 232.184 228.861C231.987 229.015 231.635 229.325 231.657 229.678C231.833 231.731 234.361 232.946 234.383 232.968C234.889 233.211 235.109 233.807 234.889 234.315C234.691 234.668 234.339 234.889 233.944 234.889Z" fill="#353365"/>
<path d="M259.782 158.308C259.562 158.264 259.32 158.308 259.122 158.396C259.672 159.081 260.2 159.809 260.684 160.538C285.708 165.507 298.243 177.232 297.979 195.362C297.715 213.624 276.539 222.192 270.557 222.965C267.896 223.318 266.775 221.839 264.312 218.151C263.103 216.34 261.08 213.403 258.99 210.996C258.353 210.753 258.265 211.305 257.605 211.129C257.583 211.946 257.561 212.785 257.517 213.602C257.495 213.889 257.341 214.066 257.121 214.132L256.923 221.75C256.901 222.302 257.341 222.788 257.913 222.788C258.463 222.854 258.946 222.369 258.946 221.794L259.144 214.441C260.574 216.23 261.695 217.886 262.619 219.277C264.818 222.567 266.467 225.041 269.81 225.041C270.139 225.041 270.469 225.018 270.821 224.974C277.176 224.135 299.716 214.971 300.002 195.362C300.288 175.841 286.764 163.343 259.782 158.308Z" fill="#353365"/>
<path d="M286.104 170.519C285.62 170.519 285.181 170.166 285.093 169.658C283.201 158.308 285.862 146.516 292.217 138.125C296.681 132.229 302.641 128.629 309.04 127.967C309.612 127.901 310.095 128.32 310.161 128.872C310.227 129.424 309.809 129.932 309.26 129.998C303.344 130.617 298.023 133.863 293.845 139.361C287.819 147.311 285.291 158.507 287.094 169.305C287.182 169.857 286.808 170.387 286.258 170.475C286.214 170.519 286.148 170.519 286.104 170.519Z" fill="#353365"/>
<path d="M73.592 214.596C65.4117 214.596 54.1748 210.223 46.6322 189.753C46.4343 189.223 46.6982 188.627 47.2259 188.45C47.7537 188.251 48.3254 188.516 48.5233 189.046C54.2408 204.548 63.1028 212.674 73.8339 212.542C89.7547 212.343 107.985 193.993 116.275 169.835C128.963 132.781 150.799 116.683 170.48 105.796C170.964 105.531 171.58 105.708 171.866 106.194C172.13 106.68 171.954 107.298 171.47 107.585C152.141 118.273 130.678 134.084 118.21 170.497C109.656 195.428 90.6124 214.397 73.8779 214.596C73.7899 214.596 73.68 214.596 73.592 214.596Z" fill="#353365"/>
<path d="M81.1126 259.533C77.6382 259.533 74.0318 259.246 70.2715 258.628C37.8581 253.284 17.4294 229.589 9.53492 188.185C6.87412 174.251 3.70755 136.778 9.84278 130.462C10.2386 130.065 10.8763 130.065 11.2721 130.44C11.668 130.838 11.69 131.478 11.2941 131.875C6.56626 136.733 8.06159 169.68 11.536 187.788C19.2545 228.242 39.1336 251.407 70.6014 256.596C112.866 263.574 137.187 226.542 137.429 226.167C137.737 225.703 138.353 225.548 138.837 225.858C139.298 226.167 139.452 226.785 139.145 227.271C138.925 227.646 117.968 259.533 81.1126 259.533Z" fill="#353365"/>
<path d="M13.5591 167.516C13.0313 167.516 12.5695 167.097 12.5475 166.567C12.5475 166.456 11.9098 155.437 12.5475 142.077C12.5695 141.525 13.0753 141.062 13.6031 141.106C14.1528 141.128 14.5926 141.614 14.5706 142.166C13.9329 155.415 14.5706 166.324 14.5706 166.434C14.5926 166.986 14.1748 167.472 13.6251 167.516C13.5811 167.516 13.5591 167.516 13.5591 167.516Z" fill="#353365"/>
<path d="M18.4849 172.595C18.4189 172.595 18.3529 172.595 18.287 172.573C17.7372 172.463 17.3854 171.933 17.4733 171.381C17.4953 171.292 19.0346 163.144 20.0462 147.046C20.0902 146.494 20.552 146.03 21.1237 146.096C21.6735 146.141 22.1133 146.626 22.0693 147.178C21.0577 163.431 19.4744 171.69 19.4525 171.778C19.3865 172.242 18.9467 172.595 18.4849 172.595Z" fill="#353365"/>
<path d="M34.0539 182.157C32.9543 181.428 31.9428 183.195 33.0203 183.923C37.5723 186.904 40.387 191.718 40.7608 197.173C40.8488 198.475 42.8719 198.475 42.7839 197.173C42.3881 190.968 39.2435 185.557 34.0539 182.157Z" fill="#353365"/>
<path d="M138.287 221.839C137.781 221.839 137.341 221.463 137.275 220.955C134.944 203.952 124.015 193.065 107.303 191.078C106.753 191.012 106.357 190.504 106.423 189.952C106.489 189.4 106.995 188.98 107.545 189.068C125.247 191.166 136.836 202.693 139.298 220.69C139.386 221.242 138.991 221.772 138.441 221.839C138.375 221.839 138.331 221.839 138.287 221.839Z" fill="#353365"/>
<path d="M139.013 206.028C133.933 221.596 121.311 244.363 121.311 244.363L138.287 226.741L139.013 206.028Z" fill="#353365"/>
</svg>
