<svg width="322" height="302" viewBox="0 0 322 302" fill="none" xmlns="http://www.w3.org/2000/svg">
<path d="M13.8223 182.619L17.2674 185.73" stroke="black" stroke-width="0.489109" stroke-linecap="round"/>
<path d="M22.458 68.978L25.9032 72.0894" stroke="black" stroke-width="0.489109" stroke-linecap="round"/>
<path d="M174.467 189.73L177.912 192.842" stroke="black" stroke-width="0.489109" stroke-linecap="round"/>
<path d="M169.345 246.567L167.371 250.773" stroke="black" stroke-width="0.489109" stroke-linecap="round"/>
<path d="M321 218.143L319.026 222.337" stroke="black" stroke-width="0.489109" stroke-linecap="round"/>
<path d="M35.1093 294.333L33.1357 298.527" stroke="black" stroke-width="0.489109" stroke-linecap="round"/>
<path d="M315.285 291.974L310.642 292.054" stroke="black" stroke-width="0.489109" stroke-linecap="round"/>
<path d="M278.597 244.243L276.624 248.437" stroke="black" stroke-width="0.489109" stroke-linecap="round"/>
<path d="M311.988 135.206L316.631 135.024" stroke="black" stroke-width="0.489109" stroke-linecap="round"/>
<path d="M293.656 86.0164L295.948 90.0509" stroke="black" stroke-width="0.489109" stroke-linecap="round"/>
<path d="M114.177 132.562L116.469 136.597" stroke="black" stroke-width="0.489109" stroke-linecap="round"/>
<path d="M257.675 5.25659L258.006 9.88382" stroke="black" stroke-width="0.489109" stroke-linecap="round"/>
<path d="M40.4937 9.3708L44.2468 6.6355" stroke="black" stroke-width="0.489109" stroke-linecap="round"/>
<path d="M183.787 45.8874L187.54 43.1521" stroke="black" stroke-width="0.489109" stroke-linecap="round"/>
<path d="M53.145 52.0873L57.6625 54.2413C58.1873 53.0104 58.906 50.3663 57.6625 49.6711C55.5064 48.634 53.7496 50.8564 53.145 52.0873Z" stroke="black" stroke-width="0.489109"/>
<path d="M128.22 229.951L132.041 226.725C131.129 225.745 129.018 223.99 127.877 224.845C126.052 226.372 127.353 228.879 128.22 229.951Z" stroke="white" stroke-width="0.489109"/>
<path d="M68.7966 105.529L72.6182 102.303C71.7056 101.323 69.5951 99.5679 68.4543 100.423C66.6291 101.95 67.9182 104.469 68.7966 105.529Z" stroke="white" stroke-width="0.489109"/>
<path d="M222.596 301L226.418 297.775C225.505 296.795 223.395 295.039 222.254 295.894C220.429 297.433 221.729 299.94 222.596 301Z" stroke="white" stroke-width="0.489109"/>
<path d="M287.7 51.5292L291.99 54.1049C292.629 52.9196 293.598 50.3667 292.423 49.5575C290.393 48.3266 288.431 50.3553 287.7 51.5292Z" stroke="black" stroke-width="0.489109"/>
<path d="M203.157 3.35333L207.447 5.92908C208.086 4.74378 209.055 2.19083 207.88 1.38163C205.838 0.150745 203.876 2.19083 203.157 3.35333Z" stroke="black" stroke-width="0.489109"/>
<path d="M144.293 18.0328L141.099 17.6453L140.757 20.7795H144.293V18.0328Z" stroke="white" stroke-width="0.489109"/>
<path d="M133.718 293.99L130.524 293.603L130.182 296.737H133.718V293.99Z" stroke="black" stroke-width="0.489109"/>
<path d="M16.5602 124.06L13.366 123.672L13.0352 126.807H16.5716V124.06H16.5602Z" stroke="black" stroke-width="0.489109"/>
<path d="M236.993 61.6153L233.799 61.2278L233.468 64.362H237.004V61.6153H236.993Z" stroke="white" stroke-width="0.489109"/>
<path d="M50.5667 231.228L47.3725 230.84L47.0303 233.974H50.5667V231.228Z" stroke="white" stroke-width="0.489109"/>
<path d="M282.921 208.205L280.229 209.971L281.997 212.581L284.7 210.302L282.921 208.205Z" stroke="white" stroke-width="0.489109"/>
<path d="M140.985 36.3474C120.337 36.3474 103.59 56.1214 103.59 80.5226C103.59 89.9366 106.089 98.6782 110.344 105.847H171.626C175.882 98.6782 178.38 89.948 178.38 80.5226C178.368 56.1214 161.633 36.3474 140.985 36.3474Z" fill="#353365"/>
<path d="M214.714 133.303C204.971 112.754 184.129 108.514 174.923 108.97C174.923 108.97 159.169 109.255 154.697 117.062C152.108 121.587 151.857 122.738 151.857 122.738L81.1512 124.083C60.5944 127.103 50.1791 145.418 43.3002 160.154L14.1533 224.924C1.81005 268.233 53.3961 267.207 53.3961 267.207H122.436H150.294H197.556H210.938C263.163 267.207 261.486 240.059 251.652 207.475C251.663 205.492 221.376 147.344 214.714 133.303Z" fill="#353365" stroke="black" stroke-width="0.733664"/>
<path d="M175.003 267.208H122.436V241.496L166.208 254.58C171.695 256.54 169.687 258.626 169.938 259.116C172.63 259.811 172.277 263.207 172.277 263.207C173.668 263.868 175.06 266.535 175.003 267.208Z" fill="white"/>
<path d="M142.753 252.95L168.079 258.831M145.389 258.831L170.509 263.196L145.389 258.831Z" stroke="black" stroke-width="0.733664" stroke-linecap="round"/>
<path d="M232.156 211.624L185.464 130.18L152.701 137.144L183.662 238.692C185.635 247.456 193.518 265.441 209.204 267.298" stroke="black" stroke-width="0.733664" stroke-linecap="round"/>
<path d="M89.7298 174.287L60.3547 225.904H122.288V266.216" stroke="black" stroke-width="0.733664" stroke-linecap="round"/>
<path d="M60.4232 225.905L42.9692 231.238" stroke="black" stroke-width="0.733664" stroke-linecap="round"/>
<path d="M175.699 113.141L181.814 130.738L158.348 135.719L153.294 114.691C158.496 102.884 167.2 83.4747 167.725 81.8791C168.261 80.2721 170.634 79.6111 171.695 80.6368C172.22 78.7563 176.224 79.3945 176.224 81.8791C179.509 80.6368 180.194 83.4405 180.125 84.489C182.84 83.2011 184.552 85.5376 183.936 87.3383C183.616 88.2729 182.338 102.212 182.338 102.212C180.422 108.195 175.699 113.141 175.699 113.141Z" fill="white"/>
<path d="M179.201 86.2671L177.547 99.4079" stroke="black" stroke-width="0.733664" stroke-linecap="round"/>
<path d="M177.536 99.408C174.752 99.5789 168.558 101.824 165.991 109.426" stroke="black" stroke-width="0.733664" stroke-linecap="round"/>
<path d="M175.151 83.6687L173.497 96.8096" stroke="black" stroke-width="0.733664" stroke-linecap="round"/>
<path d="M171.763 82.1299L170.109 95.2707" stroke="black" stroke-width="0.733664" stroke-linecap="round"/>
<path d="M163.493 76.6591L165.318 63.7006C165.124 62.3672 153.1 51.0043 122.961 61.33C125.938 70.9492 121.523 81.7537 121.523 81.7537C115.352 76.6592 107.252 80.0213 107.024 86.2669C107.401 96.9688 116.036 96.0228 119.904 93.4357V124.367C119.904 124.367 121.98 130.02 125.938 131.992C139.24 139.366 148.081 129.131 151.321 124.367V108.571C155.256 108.571 163.504 109.061 166.961 102.154C170.497 95.0655 166.835 82.6882 163.493 76.6591Z" fill="white"/>
<path d="M166.995 85.1958C168.775 92.1366 174.399 107.705 157.618 108.594" stroke="black" stroke-width="0.733664" stroke-linecap="round"/>
<path d="M151.332 116.561L136.855 107.021C136.855 107.021 141.339 107.785 144.213 108.07C146.997 108.355 151.332 108.492 151.332 108.492V116.561Z" fill="black"/>
<path d="M150.841 68.9778C151.982 74.8587 147.476 78.312 147.476 78.312L152.861 87.8058H146.518" stroke="black" stroke-width="0.733664" stroke-linecap="round"/>
<path d="M139.993 67.1085C137.677 66.7097 135.338 66.7553 133.718 67.211" stroke="black" stroke-width="0.733664" stroke-linecap="round"/>
<path d="M161.063 67.6326C158.747 67.2339 156.408 67.2795 154.777 67.7352" stroke="black" stroke-width="0.733664" stroke-linecap="round"/>
<path d="M146.141 97.2309C144.065 96.1368 142.24 94.6666 141.236 93.3103" stroke="black" stroke-width="0.733664" stroke-linecap="round"/>
<path d="M120.77 88.626L113.093 82.3462" stroke="black" stroke-width="0.733664" stroke-linecap="round"/>
<path d="M115.317 84.2612L111.496 87.8741" stroke="black" stroke-width="0.733664" stroke-linecap="round"/>
<path d="M136.525 77.9018C137.3 77.9018 137.928 77.2742 137.928 76.5C137.928 75.7258 137.3 75.0981 136.525 75.0981C135.75 75.0981 135.122 75.7258 135.122 76.5C135.122 77.2742 135.75 77.9018 136.525 77.9018Z" fill="black"/>
<path d="M157.583 78.4255C158.358 78.4255 158.986 77.7979 158.986 77.0237C158.986 76.2495 158.358 75.6218 157.583 75.6218C156.808 75.6218 156.18 76.2495 156.18 77.0237C156.18 77.7979 156.808 78.4255 157.583 78.4255Z" fill="black"/>
<path d="M316.631 267.208H1" stroke="black" stroke-width="0.733664" stroke-linecap="round"/>
<path d="M305.257 187.679H208.941V266.627H305.257V187.679Z" fill="#81BD03" stroke="black" stroke-width="0.733664"/>
<path d="M273.817 187.622V266.752" stroke="black" stroke-width="0.733664"/>
<path d="M273.817 187.622L209.09 266.615" stroke="black" stroke-width="0.733664"/>
<path d="M209.078 187.656L273.806 266.65" stroke="black" stroke-width="0.733664"/>
<path d="M308.474 149.92L305.542 148.86C300.922 152.188 297.192 156.872 294.853 164.52L297.694 165.546C300.295 156.69 305.2 152.747 308.474 149.92Z" fill="black"/>
<path d="M278.871 101.517L275.848 100.742C271.57 104.503 268.307 109.518 266.722 117.359L269.653 118.1C271.376 109.039 275.871 104.651 278.871 101.517Z" fill="black"/>
<path d="M217.2 170.72L220.132 169.66C224.752 172.999 228.483 177.672 230.821 185.32L227.981 186.345C225.38 177.478 220.486 173.546 217.2 170.72Z" fill="black"/>
<path d="M282.328 170.903L279.133 169.398C277.57 169.603 276.932 170.527 276.601 172.213L279.886 173.775C279.989 172.191 280.502 171.552 282.328 170.903Z" fill="#81BD03"/>
<path d="M198.172 178.014L201.367 176.51C202.929 176.715 203.568 177.638 203.899 179.325L200.614 180.886C200.522 179.302 199.998 178.664 198.172 178.014Z" fill="#81BD03"/>
<path d="M320.977 165.967L317.783 164.463C316.22 164.668 315.581 165.591 315.25 167.278L318.536 168.84C318.639 167.244 319.152 166.617 320.977 165.967Z" fill="#81BD03"/>
<path d="M233.457 138.102L236.651 136.598C238.214 136.803 238.852 137.726 239.183 139.413L235.898 140.974C235.795 139.39 235.282 138.752 233.457 138.102Z" fill="#81BD03"/>
<path d="M299.884 107.717L296.69 106.213C295.127 106.429 294.488 107.341 294.157 109.039L297.454 110.601C297.545 109.005 298.07 108.367 299.884 107.717Z" fill="#81BD03"/>
<path d="M275.506 127.992L279.898 129.998C279.898 129.998 271.148 129.269 267.714 131.856C260.984 136.928 273.486 138.58 273.372 144.233C273.315 147.139 260.607 145.886 259.672 149.407C258.656 153.191 264.702 163.152 264.702 163.152L260.31 161.146C260.31 161.146 257.299 152.462 258.793 149.009C260.06 146.08 270.52 146.991 271.045 144.94C272.608 138.911 260.356 135.685 267.155 130.773C269.927 128.756 275.506 127.992 275.506 127.992Z" fill="black"/>
<path d="M213.413 92.3309L209.021 94.3368C209.021 94.3368 217.771 93.6074 221.205 96.1945C227.935 101.266 215.432 102.919 215.546 108.572C215.603 111.478 228.312 110.224 229.247 113.746C230.262 117.53 224.216 127.491 224.216 127.491L228.608 125.485C228.608 125.485 231.62 116.801 230.125 113.347C228.859 110.418 218.398 111.33 217.873 109.278C216.311 103.249 228.563 100.024 221.763 95.1118C218.98 93.0945 213.413 92.3309 213.413 92.3309Z" fill="black"/>
</svg>
